<svg id="Layer_1" data-name="Layer 1" xmlns="http://www.w3.org/2000/svg" viewBox="0 0 1000 1000"><defs><style>.cls-1{fill:none;stroke:#fff;stroke-linecap:square;stroke-linejoin:round;stroke-width:113.02px;}</style></defs><title>Artboard 2</title><rect x="4.25" y="1.75" width="1000" height="1000" rx="180"/><path class="cls-1" d="M240.88,204V642A169.54,169.54,0,0,0,410.42,811.5h353.2"/><path class="cls-1" d="M518.73,300.07V642A169.54,169.54,0,0,0,688.27,811.5h99.35"/><line class="cls-1" x1="518.73" y1="433.81" x2="719.62" y2="433.81"/><polygon points="794.57 129.36 871.1 173.03 795.01 217.47 718.92 261.92 718.48 173.8 718.04 85.68 794.57 129.36"/><polygon points="554.41 126.02 677.94 100.75 638.06 220.36 598.18 339.97 514.53 245.63 430.88 151.28 554.41 126.02"/><polygon points="783.41 285.01 906.94 259.75 867.06 379.36 827.18 498.97 743.53 404.63 659.88 310.28 783.41 285.01"/><polygon points="861.41 666.01 984.94 640.75 945.06 760.36 905.18 879.97 821.53 785.63 737.88 691.28 861.41 666.01"/><polygon points="299.41 63.02 422.94 37.75 383.06 157.36 343.18 276.97 259.53 182.63 175.88 88.28 299.41 63.02"/></svg>